<?xml version="1.0" standalone="no"?>
<!DOCTYPE svg PUBLIC "-//W3C//DTD SVG 20010904//EN"
 "http://www.w3.org/TR/2001/REC-SVG-20010904/DTD/svg10.dtd">
<svg version="1.0" xmlns="http://www.w3.org/2000/svg"
 width="260.000000pt" height="260.000000pt" viewBox="0 0 260.000000 260.000000"
 preserveAspectRatio="xMidYMid meet">
<metadata>
Created by potrace 1.11, written by Peter Selinger 2001-2013
</metadata>
<g transform="translate(0.000000,260.000000) scale(0.100000,-0.100000)"
fill="#000000" stroke="none">
<path d="M1473 2589 c-28 -5 -82 -20 -120 -34 -404 -152 -590 -590 -420 -987
38 -89 132 -207 218 -273 139 -108 292 -157 469 -151 237 9 430 113 576 311
124 167 164 444 92 645 -22 63 -71 161 -96 193 -116 146 -256 242 -416 283
-72 19 -230 25 -303 13z m207 -315 c41 -85 80 -160 86 -164 5 -5 30 -12 55
-15 24 -3 69 -10 99 -15 30 -5 79 -12 109 -16 115 -14 117 -5 -29 -148 l-131
-128 5 -42 c3 -22 8 -52 11 -66 2 -13 7 -42 10 -65 3 -22 8 -47 10 -55 2 -8 7
-33 10 -55 3 -23 7 -51 10 -63 2 -12 2 -22 0 -22 -3 0 -42 20 -87 44 -46 24
-119 62 -163 85 l-80 42 -50 -27 c-258 -138 -275 -146 -274 -127 0 10 13 92
29 183 l29 165 -137 133 c-97 94 -131 132 -117 133 11 0 27 2 35 4 8 1 35 6
60 10 25 3 56 8 70 10 54 9 166 25 177 25 7 0 49 74 95 165 45 91 85 165 88
165 3 0 39 -70 80 -156z"/>
<path d="M680 1527 c-20 -10 -95 -109 -250 -327 -6 -8 -40 -55 -75 -105 -64
-90 -70 -104 -66 -159 7 -85 111 -131 185 -83 18 12 206 267 349 475 39 57 44
88 26 140 -20 59 -108 90 -169 59z"/>
<path d="M1020 1157 c-25 -9 -51 -34 -95 -94 -74 -100 -186 -259 -200 -281 -5
-9 -12 -19 -15 -22 -3 -3 -64 -87 -135 -188 -72 -101 -160 -225 -196 -276 -83
-116 -91 -131 -91 -171 0 -94 109 -152 187 -101 13 8 112 140 221 293 109 153
258 362 331 465 123 173 162 237 158 263 -12 95 -81 142 -165 112z"/>
<path d="M1459 982 c-23 -12 -78 -81 -186 -232 -217 -304 -213 -297 -213 -346
0 -36 6 -49 35 -79 20 -19 46 -35 58 -36 43 -2 72 3 93 16 17 11 223 291 362
492 40 57 27 144 -26 175 -42 25 -87 28 -123 10z"/>
</g>
</svg>
